<?xml version="1.0" encoding="utf-8"?>
<!-- Generator: Adobe Illustrator 27.7.0, SVG Export Plug-In . SVG Version: 6.00 Build 0)  -->
<svg version="1.1" id="Layer_1" xmlns="http://www.w3.org/2000/svg" xmlns:xlink="http://www.w3.org/1999/xlink" x="0px" y="0px"
	 viewBox="0 0 240 240" style="enable-background:new 0 0 240 240;" xml:space="preserve">
<style type="text/css">
	.st0{fill:#EFB30E;}
</style>
<g>
	<path class="st0" d="M91.8,121.1c-5.9,0.1-10.9,5.5-10.9,11.5c0.1,6.4,5.3,11.3,11.9,11.2c6.4-0.1,11.2-5.1,11.1-11.5
		C103.9,125.9,98.5,120.9,91.8,121.1z M92.4,138.1L92.4,138.1c-3.3-0.1-5.9-2.7-5.8-5.9c0.1-3.1,2.8-5.6,6-5.5c3.6,0.1,6,2.5,6,5.8
		C98.4,135.7,95.7,138.2,92.4,138.1z"/>
	<polygon class="st0" points="106.5,154.8 108.3,154.2 112,137.9 104.2,150.7 	"/>
	<path class="st0" d="M228,0h-65.3h-50.1H12C5.4,0,0,5.4,0,12v94.6v26.6V228c0,6.6,5.4,12,12,12h100.6h50.1H228c6.6,0,12-5.4,12-12
		v-80.2V92.2V12C240,5.4,234.6,0,228,0z M5,12c0-3.9,3.1-7,7-7h88v14.7c-8.8,1.2-17.3,3.5-25.3,6.8l-8-14l-23,13.3L51.8,40
		c-6.8,5.3-13,11.6-18.2,18.5l-14.4-8.3L6,73.3l14.6,8.4c-3.1,7.8-5.3,16.2-6.3,24.9H5V12z M5,228v-94.8h9.6
		c1.2,8.5,3.6,16.7,6.8,24.3l-15.5,9l13.3,23l15.8-9.1c5.2,6.5,11.1,12.4,17.8,17.5L43.5,214l23,13.3l9.3-16.2
		c7.6,3.1,15.6,5.2,23.9,6.3V235H12C8.1,235,5,231.9,5,228z M112.7,235v-20.5c-0.3,0.5-0.5,0.8-0.5,0.9v0
		c-5.3-11.7-11-24.2-16.5-36.3c3.5,1.4,6.6,2.7,9.8,3.8c0.3,0.1,1.2-0.3,1.2-0.5c0-3.3-0.1-6.6-0.4-9.9c0-0.2-0.1-0.5-0.3-0.7
		c-0.1-0.1-0.1-0.2-0.2-0.2s-0.1-0.2-0.2-0.2c-0.1-0.1-0.1-0.2-0.2-0.2c-0.2-0.2-0.3-0.3-0.4-0.5c-0.3,0.3-0.6,0.5-0.9,0.8
		c-0.3,0.3-0.6,0.5-0.8,0.8c-0.2,0.2-0.2,0.4-0.4,0.6c-0.7,0.9-1.3,1.8-2,2.7c-0.7-1.3-1.3-2.6-2-3.9c-0.3-0.5-0.7-0.9-1-1.4
		c-0.5,0.4-1.1,0.8-1.6,1.3c-0.4,0.4-0.7,0.8-1.1,1.2c-0.3,0.4-0.7,0.8-1.1,1.2c-0.2-0.2-0.4-0.5-0.6-0.7c-0.6-0.7-1.2-1.4-1.6-2.1
		c-2.2-4,0.5-7.4,1.5-11c0.4-1.7,0.1-4.1-0.8-5.5c-0.5-0.7-3.8-0.3-4.9,0.6c-4.8,3.9-9.2,8.2-13.7,12.5c-0.3,0.3,0,1.9,0.4,2.1
		c2.7,1.4,5.6,2.5,8.9,3.9c-5.9,2.3-11.2,4.3-16.5,6.3c-5.8,2.2-11.6,4.4-17.4,6.5c-0.7,0.2-1.4,0.3-2.1,0.4c-0.2,0-0.5,0.1-0.7,0.1
		c0-0.2,0-0.4,0.1-0.6c0.1-0.6,0.1-1.2,0.3-1.8c3.2-8.5,6.4-17.1,9.6-25.6c1.1-2.8,2.1-5.7,3.2-8.6c1.6,3.5,3.1,6.9,5.2,11.6
		c3-4.3,5.6-7.9,8.1-11.6c0.7-1.1,1.7-2.2,1.9-3.4c0.8-5.8,1.5-11.6,2-17.5c0-0.8-1.8-2.2-2.9-2.5c-2-0.5-4.2-0.3-6.1-0.9
		c-1,0.3-2,0.7-3,0.8c-4.2,0.1-8.4,0-12.5,0.1c-0.4,0-1.3,1.5-1.1,2c1,2.8,2.2,5.5,3.6,8.8c-12.4-5.6-24.2-10.9-36.8-16.6
		c12.5-5.7,24.4-11,36.8-16.6c-1.4,3.4-2.6,6.1-3.5,8.9c-0.2,0.5,0.8,2.1,1.2,2.1c7.2,0.1,14.4,0.1,21.6,0c0.7,0,1.9-1.5,1.8-2.1
		c-1-5.8,0.1-11.2,2.8-16.4c0.4-0.8-0.5-2.6-1.3-3.4c-3.8-3.9-7.8-7.6-11.8-11.2c-0.3-0.2-1.5-0.1-1.6,0.2c-1,2-1.7,4.1-2.6,6.1
		c-0.3,0.7-1,1.3-1.5,2c-0.3-0.6-0.8-1.2-1-1.9c-3.1-8.2-6.2-16.3-9.3-24.5c-1.1-3-2.3-6.1-3.6-9.8c3.6,1.3,6.6,2.4,9.6,3.5
		c8.2,3,16.3,6.1,24.5,9.2c0.8,0.3,1.5,0.8,2.2,1.3c-0.7,0.5-1.3,1.2-2.1,1.6c-1.2,0.6-2.4,1-3.7,1.4c-3.2,1-3.9,2.2-1,4.8
		c3.4,3,6.5,6.5,9.6,9.9c2.5,2.7,3.9-0.3,5.6-0.9c5-1.7,9.8-3.7,14.7-5.7c0.7-0.3,1.5-1.1,1.5-1.7c0.1-5.7,0.1-11.5,0-17.2
		c0-0.4-1.1-1.2-1.4-1.1c-3.1,1.1-6.1,2.3-9.6,3.7c5.4-11.9,10.7-24.5,16.4-37.3c0.1,0.1,0.2,0.4,0.5,0.9V5h14v14.8
		c4,0.5,8,1.3,11.9,2.3c-2.5,2.1-4.6,4.8-6.9,7.1c-3.6,3.6-6,7.9-6.1,13c-0.1,5.1,0.5,10.2,0.6,13.6c-2.2-4.9-11.3-24.1-13.5-28.6
		v187.2c3.1-5.2,19.2-32.8,19.2-33.6c-0.6,0-2.8,1.2-6,1.3c4-13.1,2.3-16.2,0.8-22.6c-0.2-0.7,0.5-2.2,0.9-2.2
		c1.7-0.2,4.1-0.7,5.1,0.2c2.5,2.4,4.5,5.3,8.3,2.1c0.3-0.2,1.4,0,1.9,0.4c2.8,2.7,5.5,5.5,8.2,8.3c0.2,0.2,0,1.3-0.2,1.4
		c-3.1,1.4-6.2,2.7-9.9,4.3c3.2,1.3,6,2.4,8.8,3.5c8.8,3.4,17.6,6.7,26.4,10c1.1,0.4,2.4,0.6,3.5,0.9c-0.3-1.5-0.6-3-1-4.4
		c-0.1-0.2-0.4-0.4-0.5-0.6c-2.9-7.8-5.9-15.6-8.8-23.4c-1.2-3.3-2.5-6.5-4-10.5c-1.8,4.2-3.3,7.6-5,11.4c-4.9-5-9.6-9.6-14.3-14.4
		c-0.8-0.8-1.7-1.7-1.9-2.6c-0.6-3.2-0.6-6.6-1.3-9.8c-0.9-3.8-0.1-5.7,3.5-6.4c1-0.2,2.1,0.1,3.2,0.1c7.7-0.1,15.4-0.3,23.1-0.3
		c0.3,0,1.1,1.2,1,1.6c-1,2.9-2.3,5.8-3.8,9.7c13.2-5.9,25.5-11.4,38.9-17.4c-13.4-5.9-25.9-11.3-39-17.1c1.5,3.7,2.8,6.8,4,9.9
		c0.1,0.4-0.3,1.5-0.4,1.5c-7.6,0-15.2-0.1-22.9-0.2c-2.7,0-2.4-1.4-1.1-3c6.5-8.2,10-17.4,10.4-27.9c0-0.2,0.1-0.5,0.3-0.7
		c0.1-0.2,0.3-0.4,0.4-0.6c0,0,0.1-0.1,0.1-0.1c0.1,0.1,0.2,0.3,0.4,0.4c0.1,0.1,0.2,0.2,0.2,0.3c0.1,0.1,0.2,0.3,0.3,0.4
		c1.2,2.9,2.5,5.8,3.9,9.2c5-13.3,9.9-26.1,14.7-38.8c-0.2-0.3-0.4-0.6-0.6-0.9c-1.9,0.9-3.7,2-5.6,2.7c-5.6,2.2-11.3,4.2-17,6.2
		c-0.6,0.2-1.8-0.1-2.2-0.6c-3.8-4.4-7.3-9-11.1-13.3c-5.7-6.3-6.1-13.6-0.5-19.8c1.4-1.5,3-2.8,4.6-4.1c1.5,0.5,3,1.1,4.4,1.7
		l8-13.9L183,26.1l-8.2,14.1c6.8,5.4,12.9,11.6,18.2,18.6l14.3-8.3l13.3,23L206,82c3.1,7.8,5.2,16.2,6.3,24.9h17.2v26.6h-17.6
		c-1.3,8.5-3.6,16.7-6.9,24.3l15.5,9l-13.3,23l-15.9-9.2c-5.2,6.5-11.2,12.4-17.8,17.4l9.3,16l-23.1,13.3l-9.4-16.2
		c-7.6,3-15.6,5.2-24,6.3V235H112.7z M118.5,61.7c0-0.4,1.2-1.2,1.5-1.1c2.6,0.9,5.5,1.6,7.6,3.3c1.4,1.1,1.5,3.7,1.9,4.7
		c0,4.9-5.2,10.9-9.1,11.2c-0.6,0-1.9-1.1-1.9-1.8C118.4,72.5,118.4,67.1,118.5,61.7L118.5,61.7z M119.5,154.2
		c-4.5-2.8-6.7-10.4-5.8-16.3C119.4,146,119.3,151.5,119.5,154.2z M118.8,174.6c0.5,0.1,1,0.1,1.5,0.2c-0.3,2.7-0.5,5.4-0.8,8.1v0
		c-0.4,0-0.8-0.1-1.3-0.2C118.5,180,118.7,177.3,118.8,174.6z M119.5,136.5c5.1-3.3,10.3-6.6,15.4-9.8c1.2,2.6-0.7,8.5-3.5,10.6
		C127.9,139.7,122.6,139.2,119.5,136.5z M235,228c0,3.9-3.1,7-7,7h-54.6c28.3-14.8,50.4-39.8,61.6-70V228z M173.4,5H228
		c3.9,0,7,3.1,7,7v63.1C223.8,44.8,201.7,19.8,173.4,5z"/>
</g>
</svg>
