<?xml version="1.0" encoding="utf-8"?>
<!-- Generator: Adobe Illustrator 24.3.0, SVG Export Plug-In . SVG Version: 6.00 Build 0)  -->
<svg version="1.1" id="Layer_3" xmlns="http://www.w3.org/2000/svg" xmlns:xlink="http://www.w3.org/1999/xlink" x="0px" y="0px"
	 viewBox="0 0 1000 1000" style="enable-background:new 0 0 1000 1000;" xml:space="preserve">
<path d="M892.35,332.07C886.46,172.94,720.63-0.44,509.12-0.19C297.62-0.44,133.4,172.94,127.51,332.07
	c0,98.72,64.83,169.44,61.88,229.86c0,38.31-53.04,73.67-51.57,103.14c0,70.72,60.41,60.41,53.04,109.03
	c-8.84,117.87,98.72,64.83,132.61,48.62c17.68,22.1-20.63,14.73-20.63,165.02l51.57,7.29l4.42-55.92l20.63,2.95v52.35l45.68,3.05
	v-50.98l25.05,1.47v50.54l42.73,1.49v-50.56h34.02V1000l42.73-1.49v-50.54l25.05-1.47v50.98l45.68-3.05v-52.35l25.05-2.95v55.92
	l47.15-7.29c4.42-150.29-33.89-142.92-16.21-165.02c33.89,16.21,141.45,69.25,132.61-48.62c-7.37-48.62,53.04-38.31,53.04-109.03
	c1.47-29.47-51.57-64.83-51.57-103.14C827.52,501.52,892.35,430.79,892.35,332.07z M280.74,744.64
	c-20.63-5.89-42.73-54.52-44.2-64.83c-1.47-10.31-1.47-53.04,5.89-61.88s45.68-13.26,61.88-13.26s147.34,64.83,147.34,75.14
	C451.66,690.12,332.31,744.64,280.74,744.64z M509.94,810.95L509.94,810.95C509.93,810.95,509.93,810.95,509.94,810.95
	c-0.01,0-0.01,0-0.02-0.01v0.01c-17.06,5.85-55.89,27.98-55.89,27.98s21.02-102.99,55.9-108.75c34.87,5.76,55.9,108.75,55.9,108.75
	S527,816.8,509.94,810.95z M783.32,679.8c-1.47,10.31-23.57,58.94-44.2,64.83c-51.57,0-170.92-54.52-170.92-64.83
	c0-10.31,131.14-75.14,147.34-75.14c16.21,0,54.52,4.42,61.88,13.26C784.79,626.76,784.79,669.49,783.32,679.8z"/>
</svg>
