<?xml version="1.0" standalone="no"?>
<!DOCTYPE svg PUBLIC "-//W3C//DTD SVG 20010904//EN"
 "http://www.w3.org/TR/2001/REC-SVG-20010904/DTD/svg10.dtd">
<svg version="1.0" xmlns="http://www.w3.org/2000/svg"
 width="570.000000pt" height="854.000000pt" viewBox="0 0 570.000000 854.000000"
 preserveAspectRatio="xMidYMid meet">
<metadata>
Created by potrace 1.16, written by Peter Selinger 2001-2019
</metadata>
<g transform="translate(0.000000,854.000000) scale(0.100000,-0.100000)"
fill="#000000" stroke="none">
<path d="M2585 7695 c-344 -57 -667 -143 -887 -235 l-78 -32 0 -501 1 -502
161 -110 c424 -288 690 -465 702 -465 7 0 61 36 119 80 l107 80 0 850 0 850
-22 -1 c-13 -1 -59 -7 -103 -14z"/>
<path d="M3020 6858 l1 -853 82 -61 c127 -95 134 -99 162 -86 22 10 261 171
658 444 l187 129 0 499 0 499 -127 49 c-136 52 -395 129 -553 163 -99 21 -374
69 -397 69 -11 0 -13 -159 -13 -852z"/>
<path d="M4380 6835 l0 -435 196 -130 c107 -72 202 -134 210 -137 12 -4 14 54
14 411 l0 416 -112 83 c-62 46 -157 116 -210 155 l-98 72 0 -435z"/>
<path d="M1131 7113 l-200 -148 -1 -418 c0 -239 4 -417 9 -415 5 2 97 62 205
133 l196 130 0 433 c0 237 -2 432 -4 432 -2 0 -94 -66 -205 -147z"/>
<path d="M1399 6134 c-52 -37 -178 -129 -281 -206 l-188 -140 0 -201 c0 -111
4 -208 9 -215 7 -12 21 -11 79 5 87 24 123 46 397 238 l217 152 149 -101 c82
-55 237 -161 344 -234 l195 -132 0 154 0 154 -402 289 c-222 159 -408 292
-414 296 -7 4 -54 -23 -105 -59z"/>
<path d="M3813 5902 l-413 -297 0 -153 c0 -120 3 -152 13 -145 6 4 160 108
342 231 181 123 336 221 345 219 8 -2 121 -78 251 -169 130 -91 254 -173 275
-183 31 -15 131 -43 156 -45 14 0 20 111 13 269 l-7 166 -273 203 c-150 111
-276 202 -281 202 -5 -1 -195 -135 -421 -298z"/>
<path d="M2715 5707 c-135 -105 -132 -98 -134 -244 l-1 -93 270 0 271 0 -3
117 -3 117 -75 59 c-83 64 -189 137 -199 137 -3 0 -60 -42 -126 -93z"/>
<path d="M1460 5325 c-79 -62 -145 -116 -147 -121 -3 -10 632 -474 657 -481
12 -3 62 38 152 124 73 70 135 132 137 137 3 8 -579 413 -639 445 -11 6 -56
-23 -160 -104z"/>
<path d="M3796 5220 c-175 -120 -323 -223 -328 -228 -6 -6 38 -55 121 -133 72
-67 137 -127 146 -132 12 -6 28 -1 58 19 65 42 616 444 621 453 3 4 -10 18
-27 32 -58 46 -252 195 -262 201 -5 3 -153 -92 -329 -212z"/>
<path d="M2580 4645 l0 -465 137 -110 c76 -60 141 -110 145 -110 4 0 64 51
133 113 l125 112 -2 460 -3 460 -267 3 -268 2 0 -465z"/>
<path d="M981 4988 l-51 -43 3 -314 2 -314 230 -169 c327 -240 502 -360 520
-356 8 2 157 109 330 238 l315 235 0 192 c0 106 -2 193 -5 193 -2 0 -69 -48
-147 -106 -79 -58 -156 -113 -171 -121 -28 -14 -31 -13 -492 296 -255 171
-468 311 -473 311 -6 0 -33 -19 -61 -42z"/>
<path d="M4212 4720 c-254 -170 -466 -310 -471 -310 -5 0 -83 54 -172 119 -89
66 -166 118 -171 115 -4 -3 -8 -88 -8 -189 l0 -185 321 -240 c176 -133 326
-243 332 -246 7 -2 100 60 207 138 107 79 275 201 373 272 l177 130 0 307 0
307 -51 46 c-28 25 -57 46 -63 46 -7 0 -220 -139 -474 -310z"/>
<path d="M930 3078 l1 -913 183 -177 183 -177 6 391 c9 500 9 1249 1 1406 l-7
120 -178 131 c-98 72 -181 131 -184 131 -3 0 -5 -411 -5 -912z"/>
<path d="M4745 3958 c-22 -16 -106 -77 -187 -136 l-148 -107 0 -960 0 -959 68
64 c37 36 124 121 195 190 l127 125 -1 820 c-1 451 -4 859 -8 906 l-6 86 -40
-29z"/>
<path d="M3173 3853 l-152 -108 -3 -178 -3 -177 173 0 173 0 179 -146 180
-147 0 -978 c0 -539 3 -979 8 -978 4 0 89 91 190 202 l182 201 0 930 0 931
-376 273 c-206 150 -381 275 -387 278 -7 2 -80 -44 -164 -103z"/>
<path d="M2279 3877 c-57 -40 -227 -162 -376 -271 l-273 -200 0 -934 0 -934
148 -161 c82 -89 162 -177 179 -196 l30 -34 6 144 c4 79 7 516 7 970 l0 825
28 26 c15 14 97 83 182 152 l154 126 173 0 173 0 0 149 c0 82 -3 163 -6 180
-6 27 -28 47 -147 132 -78 54 -148 99 -158 99 -9 0 -63 -33 -120 -73z"/>
<path d="M2374 3027 c-49 -35 -89 -68 -88 -75 1 -7 2 -106 3 -222 0 -115 5
-210 9 -210 4 0 58 38 120 85 l111 85 278 -5 c412 -8 362 2 486 -99 58 -47
108 -86 112 -86 6 0 -3 376 -11 425 -4 25 -22 42 -101 98 l-97 67 -366 0 -366
0 -90 -63z"/>
<path d="M3023 1904 c4 -269 10 -683 14 -921 l6 -432 41 32 c23 18 113 90 199
162 l157 130 -1 415 c-1 228 -4 504 -8 614 l-6 199 -141 101 c-78 55 -169 121
-204 145 l-63 44 6 -489z"/>
<path d="M2497 2243 l-195 -138 -6 -190 c-3 -104 -8 -380 -10 -613 l-4 -423
196 -163 197 -164 6 142 c4 77 9 445 13 816 3 371 9 719 12 773 4 61 3 97 -4
97 -5 0 -97 -62 -205 -137z"/>
</g>
</svg>
