<?xml version="1.0" encoding="utf-8"?>
<svg version="1.1" x="0px" y="0px" viewBox="0 0 1000 1000" style="enable-background:new 0 0 1000 1000;" xmlns="http://www.w3.org/2000/svg">
  <g id="Layer_3"/>
  <g id="Layer_3_copy"/>
  <g id="Layer_2"/>
  <g id="Layer_2_copy">
    <g>
      <path d="M526.5,739.1c-2.9-6.2-6.5-11.3-10.1-15.5l-0.8-1c-3.9,1.5-8.5,2.4-14.1,2.4c-5.6,0-10.2-0.9-14.1-2.4l-0.8,1 c-1.5,1.8-2.9,3.6-4.1,5.5v46c14.7,3.1,29.4,3.1,44,0V739.1z"/>
      <path d="M691.3,489.6c-5.2-14.2-12.6-26.9-22-38.1l-2.6,1.5c1.1,1.8,2.3,3.9,3.5,6.3c3.7,7.4,7,16,8.7,21.2c1.2,4,0.6,10.2-1,16.8 L691.3,489.6z"/>
      <path d="M375.7,521.9c0.1-0.4,0.6-2.3,1.3-5.1c-5.5-2.3-13.5-4-18.3-4.8c-0.2,0.3-0.3,0.6-0.5,0.9l17.3,10 C375.5,522.5,375.6,522.2,375.7,521.9z"/>
      <path d="M627.4,521.9c0.3,0.9,0.5,2.4,0.6,4.2l18.5-10.7c-0.8-1.2-1.5-2.4-2-3.5c-4.3,0.7-12.5,2.4-18.4,4.8 C626.8,519.6,627.3,521.5,627.4,521.9z"/>
      <path d="M325.9,475.3l-8.2,14.3l6.6,3.8c-0.9-5.1-1.1-9.7-0.1-12.9C324.6,479,325.2,477.2,325.9,475.3z"/>
      <path d="M625.1,736.8l-28.3-49c-2.6,2.2-5.2,3.9-7.8,4.9c-6.3,2.6-10-0.7-12.5-3.7l0,1c0.2,16.6-0.7,31.9-2.7,46.1l13.1,22.7 C601.8,753.2,614.7,746,625.1,736.8z"/>
      <path d="M422.1,758.8l8.4-14.6c-2.9-16.4-4.2-34.5-4-54.2l0-1c-2.5,3.1-6.2,6.3-12.6,3.7c-1.2-0.5-2.4-1.1-3.5-1.8l-26.5,45.9 C393.6,747.9,406.6,754.9,422.1,758.8z"/>
      <path d="M375.2,646.4c-4.1-1.3-12.9-0.7-19.3,0.1c-1.1,5.3-3.6,14-9,16.2c-3.3,1.3-6.6-0.9-7.6-1.6c-3.4-2.3-7.8-7-11.7-12.4 l-9.9,5.7c4.8,13.5,12.5,26.1,22,38.1l47.9-27.6c-1.9-2.8-3.6-5.5-5.2-8.1C379.5,652.5,376.9,648.3,375.2,646.4z"/>
      <path d="M691.3,654.4l-14.2-8.2c-4.3,6.3-9.6,12.2-13.5,14.8c-1.1,0.7-4.3,2.9-7.6,1.6c-5.4-2.2-7.9-10.9-9-16.2 c-6.3-0.8-15.1-1.4-19.3-0.1c-1.6,1.9-4.3,6.1-7.1,10.4c-1.1,1.8-2.4,3.7-3.6,5.6l52.2,30.1C679.5,680.4,687,667.7,691.3,654.4z"/>
      <path d="M707.5,550h-79.7c-0.4,9.5-1,18.7-1.3,23.3l0,0.4l-0.1,0.4c-2.1,7.7-3.2,16-2.8,20h39.5c3.6-1.8,8.1-3.2,11.9-1.7 c0.9,0.4,1.7,0.9,2.5,1.7h30C710.1,578.6,710.7,563.8,707.5,550z"/>
      <path d="M301.5,594h24.1c0.8-0.8,1.6-1.4,2.5-1.7c3.7-1.5,8.3-0.1,11.9,1.7h39.5c0.4-3.9-0.7-12.3-2.8-20l-0.1-0.4l0-0.4 c-0.3-4.6-0.9-13.8-1.3-23.3h-73.7C297.3,564.7,297.3,579.3,301.5,594z"/>
      <path d="M483.5,834c-17-35.4-29.1-77.8,0-113c-21-21-27-56-53-31C429.8,752.5,444.8,802.6,483.5,834z"/>
      <path d="M 587.5 689 C 602.5 683 619.5 649 625.5 643 C 632.5 640 650.5 643 650.5 643 C 650.5 643 652.5 657 657.5 659 C 662.5 661 680.5 638 680.5 629 C 680.5 620 678.5 598 673.5 596 C 668.5 594 659.5 601 659.5 601 C 659.5 601 630.5 609 621.5 599 C 616.5 595 622.5 573 622.5 573 C 622.5 573 625.5 529 623.5 523 C 623.5 523 622.7 519.6 621.4 514.6 C 629.7 509.9 646.7 507.6 646.7 507.6 C 646.7 507.6 653.8 522.4 660 522.9 C 666.2 523.4 678.2 491.7 675.1 481.7 C 672 471.7 662.1 448.1 655.9 447.6 C 649.7 447.1 642.1 458 642.1 458 C 642.1 458 622.9 470.4 608.5 470.9 C 605.8 466 570.647 440.303 556.762 433.844 C 556.762 433.844 543.668 421.685 504.414 421.682 C 467.495 421.679 447.6 432.792 447.6 432.792 C 423.413 447.561 397.3 465.9 394.6 470.9 C 380.1 470.3 361 458 361 458 C 361 458 353.4 447.1 347.2 447.6 C 341 448.1 331.1 471.7 328 481.7 C 324.9 491.7 336.9 523.4 343.1 522.9 C 349.3 522.4 356.4 507.6 356.4 507.6 C 356.4 507.6 373.4 510 381.7 514.6 C 380.4 519.6 379.6 523 379.6 523 C 377.6 529 380.6 573 380.6 573 C 380.6 573 386.6 595 381.6 599 C 372.6 609 343.6 601 343.6 601 C 343.6 601 334.6 594 329.6 596 C 324.6 598 322.6 620 322.6 629 C 322.6 638 340.6 661 345.6 659 C 350.6 657 352.6 643 352.6 643 C 352.6 643 370.6 640 377.6 643 C 383.6 649 400.6 683 415.6 689 C 427.6 694 421.6 668 454.6 680 C 474.6 685 467.6 721 501.6 721 C 535.6 721 528.6 685 548.6 680 C 581.5 668 575.5 694 587.5 689 Z M 466.5 660 C 466.5 660 424.5 650 417.5 639 C 402.5 607 415.5 601 415.5 601 C 448.2 616.8 474.5 635 466.5 660 Z M 470.5 601 C 460.5 612 426.5 592 415.5 576 C 412.5 570 415.5 555 421.5 552 C 449.5 547 473.5 575 470.5 601 Z M 507.4 678.7 L 502.8 667.2 C 502.3 666 500.7 666 500.2 667.2 L 495.6 678.7 C 493.1 680.5 485.8 685.1 478.5 681 C 478.5 678 487.5 673 492.5 656 C 495.5 648 491.5 592 501.5 592 C 511.5 592 507.5 648 510.5 656 C 515.5 673 524.5 678 524.5 681 C 517.2 685.1 509.9 680.5 507.4 678.7 Z M 581.5 552 C 587.5 555 590.5 570 587.5 576 C 576.5 592 542.5 612 532.5 601 C 529.5 575 553.5 547 581.5 552 Z M 536.5 660 C 528.5 635 554.8 616.8 587.5 601 C 587.5 601 600.5 607 585.5 639 C 578.5 650 536.5 660 536.5 660 Z"/>
      <path d="M519.5,721c29.1,35.2,17,77.6,0,113c38.7-31.4,53.7-81.5,53-144C546.5,665,540.5,700,519.5,721z"/>
      <path d="M264.2,382c7.3,0.7,11.8,4.6,13.8,6.6c0,0,2.6,2.6,7.4,7.4c-8.6,10.7-16.5,22-23.5,33.9l59.8,34.5 c18.2-30.8,44-56.6,74.9-74.9L362,329.8c-11.9,7-23.2,14.8-33.8,23.4l-7.4-7.4c-1.9-1.9-5.9-6.5-6.5-13.8 c-1.4-14.8,11.9-26.6,12.7-27.2c-2.4-2.4-11.9-11.9-14.3-14.3l-90.1,90c2.4,2.4,11.9,11.9,14.3,14.3 C237.6,394,249.4,380.6,264.2,382z"/>
      <path d="M201.2,527.8c6.6-3,12.6-1.9,15.2-1.2c0,0,3.6,1,10.2,2.7c-2,13.3-3.1,26.9-3.2,40.8h69c0.3-37.2,10.2-72,27.4-102.3 l-59.8-34.5c-6.8,12-12.7,24.5-17.8,37.4l-10.1-2.7c-2.6-0.7-8.3-2.7-12.6-8.7c-8.6-12.1-2.9-29-2.6-29.9 c-3.3-0.9-16.3-4.4-19.6-5.3l-33,123c3.3,0.9,16.3,4.4,19.6,5.3C184.1,551.5,187.6,534,201.2,527.8z"/>
      <path d="M766.3,470.5c-5-12.8-10.9-25.2-17.6-37.1l-59.8,34.5c17.1,30.2,27,65.1,27.4,102.3h69c-0.1-14-1.2-27.7-3.3-41.2 l10.2-2.7c2.6-0.7,8.6-1.8,15.2,1.2c13.5,6.2,17,23.6,17.2,24.6c3.3-0.9,16.3-4.4,19.6-5.2l-32.9-123c-3.3,0.9-16.3,4.4-19.6,5.2 c0.3,1,6,17.8-2.6,29.9c-4.2,6-9.9,7.9-12.6,8.6C776.5,467.7,772.9,468.7,766.3,470.5z"/>
      <path d="M687.7,345.9c0,0-2.6,2.6-7.4,7.4c-10.7-8.6-22-16.4-33.9-23.4L612,389.6c30.8,18.2,56.6,44,74.9,74.9l59.8-34.5 c-7-11.9-14.8-23.2-23.4-33.9l7.3-7.3c1.9-1.9,6.5-5.9,13.8-6.5c14.8-1.4,26.6,11.9,27.2,12.7c2.4-2.4,11.9-11.9,14.3-14.3 l-90-90.1c-2.4,2.4-11.9,11.9-14.3,14.3c0.8,0.7,14.1,12.4,12.7,27.2C693.6,339.4,689.7,343.9,687.7,345.9z"/>
      <path d="M745.8,762.3c-9.5-0.1-14.9-6-16.1-7.5c-2.2-2.1-4.4-4.3-6.5-6.4c8.6-10.7,16.5-22.1,23.5-34l-59.8-34.5 c-18.2,30.8-44,56.6-74.9,74.9l34.5,59.8c11.8-7,23.1-14.8,33.8-23.4c3.3,3.3,5.5,5.5,6.4,6.5c1.5,1.3,7.4,6.7,7.5,16.2 c0.1,9.1-5.3,18.6-13.9,24.6l15.4,15.4l90.1-90l-15.4-15.4C764.4,757.1,754.9,762.4,745.8,762.3z"/>
      <path d="M808.4,616.4c-8.3,4.7-15.9,2.2-17.7,1.6c-2.9-0.8-5.8-1.5-8.8-2.3c2.1-13.6,3.3-27.4,3.3-41.5h-69 c-0.3,37.2-10.2,72-27.4,102.3l59.8,34.5c6.7-11.8,12.6-24.1,17.5-36.8c4.5,1.2,7.5,2,8.8,2.4c1.9,0.4,9.7,2.1,14.6,10.2 c4.7,7.9,4.7,18.7,0.3,28.3l21,5.6l33-123l-21-5.6C821.9,602.5,816.4,611.9,808.4,616.4z"/>
      <path d="M321.5,797.6c2.2-2.2,4.3-4.4,6.5-6.6c10.7,8.7,22.1,16.6,34.1,23.6l34.5-59.8c-30.8-18.2-56.6-44-74.9-74.9l-59.8,34.5 c7,11.8,14.8,23.1,23.3,33.7c-3.4,3.4-5.6,5.6-6.6,6.5c-1.3,1.5-6.7,7.4-16.2,7.5c-9.1,0.1-18.6-5.3-24.6-13.9l-15.4,15.4l90,90.1 l15.4-15.4c-8.6-6-14-15.5-13.9-24.6C314.1,804.2,320,798.8,321.5,797.6z"/>
      <path d="M242.1,673.4c5,13,11,25.6,17.8,37.6l59.8-34.5c-17.1-30.2-27-65.1-27.4-102.3h-69c0.1,13.8,1.2,27.5,3.2,40.8 c-4.4,1.2-7.4,2-8.7,2.3c-1.8,0.6-9.5,3.1-17.7-1.6c-8-4.5-13.5-13.9-14.4-24.3l-21,5.6l32.9,123l21-5.6 c-4.4-9.5-4.3-20.4,0.3-28.3c4.8-8.2,12.7-9.9,14.6-10.2C236.4,675,239.2,674.2,242.1,673.4z"/>
      <path d="M486.7,835.5l6.7,14l-12.1-9.8c-20.5-16.6-35.1-38.6-43.9-66.4c-13.1-4.3-25.6-9.9-37.4-16.6l-34.5,59.8 c11.8,6.7,24.2,12.6,37,17.6c-1.3,4.7-2.1,7.9-2.5,9.2c-0.4,1.9-2.1,9.7-10.2,14.6c-7.9,4.7-18.7,4.7-28.3,0.3l-5.6,21l123,33 l5.6-21c-10.5-0.9-19.8-6.4-24.3-14.4c-4.7-8.3-2.2-15.9-1.6-17.7c0.8-3.1,1.6-6.1,2.4-9.2c13.5,2.1,27.3,3.2,41.3,3.3v-69 c-11-0.1-21.8-1.1-32.4-2.8C471.6,801.1,479.3,820.1,486.7,835.5z"/>
      <path d="M618.6,857.4c-8.2-4.8-9.9-12.7-10.2-14.6c-0.8-2.9-1.6-5.8-2.4-8.6c12.9-5,25.3-10.9,37.1-17.7l-34.5-59.8 c-14.1,8-29.2,14.4-45.1,19c-9,24.8-22.9,44.6-41.8,60l-12.1,9.8l6.7-14c9.3-19.3,14.2-35.5,16.1-49.2c-8.6,1.1-17.3,1.8-26.2,1.9 v69c14-0.1,27.8-1.2,41.2-3.3c1.2,4.4,2,7.4,2.3,8.7c0.6,1.8,3.1,9.5-1.6,17.7c-4.5,8-13.9,13.5-24.3,14.4l5.6,21l123-32.9 l-5.6-21C637.3,862.2,626.4,862.1,618.6,857.4z"/>
      <path d="M 383.9 407.2 L 409.412 451.127 C 409.412 451.127 438.526 432.656 446.426 427.184 L 422.2 385.1 C 407.3 389.5 394.7 396.9 383.9 407.2 Z"/>
      <path d="M 563.419 430.45 C 573.419 436.95 589.7 448.7 597.5 455 L 625.1 407.2 C 613.9 396.8 601.4 389 587 385.2 L 563.419 430.45 Z"/>
    </g>
  </g>
  <path d="M 538.692 340.356 C 545.292 337.356 551.292 338.456 553.892 339.156 C 553.892 339.156 557.492 340.156 564.092 341.856 C 562.092 355.156 560.992 368.756 560.892 382.656 L 629.892 382.656 C 630.192 345.456 640.092 310.656 657.292 280.356 L 597.492 245.856 C 590.692 257.856 584.792 270.356 579.692 283.256 L 569.592 280.556 C 566.992 279.856 561.292 277.856 556.992 271.856 C 548.392 259.756 554.092 242.856 554.392 241.956 C 551.092 241.056 538.092 237.556 534.792 236.656 L 501.792 359.656 C 505.092 360.556 518.092 364.056 521.392 364.956 C 521.592 364.056 525.092 346.556 538.692 340.356 Z" transform="matrix(0, 1, -1, 0, 889.197998, -269.885986)"/>
  <path d="M 429.442 336.106 C 434.442 349.106 440.442 361.706 447.242 373.706 L 507.042 339.206 C 489.942 309.006 480.042 274.106 479.642 236.906 L 410.642 236.906 C 410.742 250.706 411.842 264.406 413.842 277.706 C 409.442 278.906 406.442 279.706 405.142 280.006 C 403.342 280.606 395.642 283.106 387.442 278.406 C 379.442 273.906 373.942 264.506 373.042 254.106 L 352.042 259.706 L 384.942 382.706 L 405.942 377.106 C 401.542 367.606 401.642 356.706 406.242 348.806 C 411.042 340.606 418.942 338.906 420.842 338.606 C 423.742 337.706 426.542 336.906 429.442 336.106 Z" transform="matrix(0, 1, -1, 0, 739.347992, -119.735992)"/>
  <path d="M 526.402 366.598 C 505.172 369.311 500.082 368.95 482.234 366.31 L 482.234 416.01 C 496.934 419.11 511.634 419.11 526.234 416.01 L 526.402 366.598 Z" transform="matrix(-1, 0, 0, -1, 1008.635986, 784.644989)"/>
</svg>